#!OML:ASF X:\für Bonn\!DataBase\2005_08_10_Bjorn_Final\c3d\bjorn.ASF
:FULLY-SPECIFIED
:DEGREES
46
root -13.4292 18.7654 -1.00783 1539.02 -87.1452 -102.321
lowerback -4.18967 5.46454 3.23185
upperback 8.08258 7.12969 -2.48328
thorax 11.7996 3.7808 -3.44335
lowerneck -3.75729 -6.28147 2.15318
upperneck 1.45606 -8.52839 1.55566
head 1.0435 -4.22921 -0.0428117
rclavicle -3.53837e-014 1.19271e-014
rhumerus -3.15446 8.10507 -88.3161
rradius 68.4925
rwrist -19.0306
rhand -8.8237 7.99959
rfingers 7.12502
rthumb 17.1161 -21.2665
lclavicle -3.53837e-014 1.19271e-014
lhumerus -34.601 12.7996 80.6604
lradius 14.8697
lwrist -42.9046
lhand -12.3018 -6.17808
lfingers 7.12502
lthumb 13.7662 23.3465
rfemur 19.8272 -1.45409 17.1831
rtibia 16.7179
rfoot -6.99696 21.779
rtoes 3.70462
lfemur -27.1307 6.52335 -14.9806
ltibia 26.1144
lfoot 4.43964 -5.33231
ltoes -12.7295
47
root -13.5938 18.7586 -0.9751 1539.95 -87.216 -103.306
lowerback -4.33594 5.50317 3.04976
upperback 8.13283 7.20333 -2.55628
thorax 11.9393 3.80404 -3.3952
lowerneck -3.93468 -6.35769 1.86442
upperneck 1.54313 -8.63155 1.83669
head 1.12692 -4.27597 0.0761995
rclavicle 5.48646e-014 -3.18055e-014
rhumerus -2.53916 8.15582 -88.1298
rradius 69.4721
rwrist -19.2675
rhand -8.80477 8.25832
rfingers 7.12502
rthumb 17.1344 -21.0062
lclavicle 5.48646e-014 -3.18055e-014
lhumerus -34.2709 13.3162 80.426
lradius 14.7684
lwrist -43.446
lhand -12.314 -6.06773
lfingers 7.12502
lthumb 13.7544 23.4576
rfemur 19.7709 -1.15076 17.0406
rtibia 17.7406
rfoot -6.26598 21.6621
rtoes 3.57522
lfemur -27.1363 6.32833 -15.0794
ltibia 27.1588
lfoot 4.98836 -5.30649
ltoes -10.1262
48
root -13.7596 18.7497 -0.942687 1540.89 -87.2647 -104.302
lowerback -4.50502 5.55816 2.87668
upperback 8.17028 7.29842 -2.61621
thorax 12.0798 3.83732 -3.33246
lowerneck -4.13432 -6.44405 1.65347
upperneck 1.7099 -8.75153 2.03419
head 1.23319 -4.33015 0.154967
rclavicle -2.96189e-014 1.66979e-014
rhumerus -2.00212 8.14992 -87.939
rradius 70.4297
rwrist -19.4233
rhand -8.79614 8.54331
rfingers 7.12502
rthumb 17.1427 -20.7205
lclavicle -2.96189e-014 1.66979e-014
lhumerus -33.971 13.7568 80.2315
lradius 14.6864
lwrist -43.9479
lhand -12.4515 -5.99541
lfingers 7.12502
lthumb 13.6218 23.5389
rfemur 19.6244 -0.831385 16.9309
rtibia 18.9317
rfoot -5.57097 21.5504
rtoes 3.18484
lfemur -27.1288 6.23455 -15.1844
ltibia 28.1943
lfoot 5.26229 -5.44226
ltoes -8.11141
49
root -13.9244 18.7445 -0.909815 1543.22 -87.3399 -106.673
lowerback -4.67755 5.61956 2.67322
upperback 8.18027 7.40811 -2.69338
thorax 12.1902 3.87528 -3.26982
lowerneck -4.23599 -6.52918 1.47603
upperneck 1.82957 -8.86584 2.17553
head 1.30435 -4.38342 0.216402
rclavicle -8.54774e-015 8.74653e-015
rhumerus -1.487 8.16446 -87.7537
rradius 71.3362
rwrist -19.5576
rhand -8.75309 8.858
rfingers 7.12502
rthumb 17.1841 -20.4022
lclavicle -8.54774e-015 8.74653e-015
lhumerus -33.6717 14.1761 80.0447
lradius 14.5697
lwrist -44.4822
lhand -12.64 -5.96191
lfingers 7.12502
lthumb 13.4402 23.5845
rfemur 19.3598 -0.467675 16.765
rtibia 20.2512
rfoot -4.77008 21.4147
rtoes 2.72929
lfemur -27.09 6.1099 -15.3151
ltibia 29.1869
lfoot 5.31627 -5.46727
ltoes -5.93719
50
root -14.0825 18.7393 -0.877303 1545.05 -87.4203 -108.519
lowerback -4.81038 5.68842 2.47854
upperback 8.16948 7.52923 -2.78209
thorax 12.2562 3.91996 -3.22681
lowerneck -4.33199 -6.62666 1.3535
upperneck 1.9412 -8.99882 2.30039
head 1.36928 -4.44607 0.264089
rclavicle 8.34896e-014 -3.33958e-014
rhumerus -0.937803 8.11208 -87.541
rradius 72.2157
rwrist -19.6538
rhand -8.62397 9.0442
rfingers 7.12502
rthumb 17.3084 -20.2051
lclavicle 8.34896e-014 -3.33958e-014
lhumerus -33.3239 14.5486 79.8859
lradius 14.4278
lwrist -45.0246
lhand -12.8408 -5.90006
lfingers 7.12502
lthumb 13.2467 23.659
rfemur 18.9845 -0.138292 16.6022
rtibia 21.6841
rfoot -3.82951 21.2143
rtoes 2.21471
lfemur -27.0542 6.05194 -15.4826
ltibia 30.1137
lfoot 5.21814 -5.61712
ltoes -4.43433
51
root -14.2407 18.7381 -0.845508 1546.7 -87.5301 -110.19
lowerback -4.9346 5.76205 2.26905
upperback 8.13658 7.66205 -2.90312
thorax 12.2953 3.97055 -3.2102
lowerneck -4.40076 -6.72825 1.39599
upperneck 2.08212 -9.14218 2.29888
head 1.42479 -4.51456 0.247492
rclavicle 7.71285e-014 -5.40694e-014
rhumerus -0.423465 7.9884 -87.3662
rradius 73.0711
rwrist -19.6496
rhand -8.55412 9.17962
rfingers 7.12502
rthumb 17.3756 -20.0637
lclavicle 7.71285e-014 -5.40694e-014
lhumerus -32.9512 14.5635 79.8433
lradius 14.3068
lwrist -45.2567
lhand -13.0829 -5.86099
lfingers 7.12502
lthumb 13.0133 23.7131
rfemur 18.5344 0.159333 16.4062
rtibia 23.206
rfoot -2.76855 20.9793
rtoes 1.79656
lfemur -26.964 5.98865 -15.6913
ltibia 30.9335
lfoot 4.95329 -5.77049
ltoes -3.35036
52
root -14.3972 18.7385 -0.815258 1547.36 -87.6774 -110.874
lowerback -5.05488 5.80681 2.00238
upperback 8.1029 7.76057 -3.00933
thorax 12.3159 3.99836 -3.15265
lowerneck -4.42785 -6.82996 1.37617
upperneck 2.19591 -9.28244 2.34671
head 1.47013 -4.58179 0.257798
rclavicle -2.84262e-014 1.59028e-015
rhumerus 0.131369 7.91373 -87.1293
rradius 73.91
rwrist -19.6721
rhand -8.58332 9.21013
rfingers 7.12502
rthumb 17.3475 -20.0357
lclavicle -2.84262e-014 1.59028e-015
lhumerus -32.5704 14.3563 79.9463
lradius 14.2618
lwrist -45.1303
lhand -13.2297 -5.68622
lfingers 7.12502
lthumb 12.8718 23.8969
rfemur 18.0299 0.390747 16.1856
rtibia 24.7797
rfoot -1.59989 20.688
rtoes 1.8546
lfemur -26.8115 5.90013 -15.9227
ltibia 31.6442
lfoot 4.58841 -5.90775
ltoes -2.57183
53
root -14.5541 18.745 -0.785637 1547.24 -87.7958 -110.754
lowerback -5.21117 5.85885 1.79699
upperback 8.06425 7.8659 -3.13836
thorax 12.367 4.03624 -3.14856
lowerneck -4.41996 -6.93808 1.44354
upperneck 2.26125 -9.43383 2.37625
head 1.48864 -4.65542 0.250957
rclavicle 6.16232e-014 -3.02153e-014
rhumerus 0.764583 7.73905 -86.927
rradius 74.7033
rwrist -19.6962
rhand -8.80475 9.11392
rfingers 7.12502
rthumb 17.1344 -20.1506
lclavicle 6.16232e-014 -3.02153e-014
lhumerus -32.1382 13.9772 80.067
lradius 14.2454
lwrist -44.8532
lhand -13.3339 -5.59594
lfingers 7.12502
lthumb 12.7713 23.9934
rfemur 17.4326 0.60415 16.0229
rtibia 26.3855
rfoot -0.333974 20.2929
rtoes 2.06113
lfemur -26.6107 5.82136 -16.1199
ltibia 32.2318
lfoot 4.18794 -6.08338
ltoes -2.13623
54
root -14.71 18.7564 -0.755662 1546.89 -87.962 -110.423
lowerback -5.31649 5.9036 1.57153
upperback 8.02227 7.96464 -3.28632
thorax 12.3823 4.07017 -3.16026
lowerneck -4.39936 -7.05053 1.44891
upperneck 2.33232 -9.59061 2.48394
head 1.51429 -4.7308 0.277706
rclavicle 4.8901e-014 -4.13472e-014
rhumerus 1.43391 7.58435 -86.6878
rradius 75.4662
rwrist -19.7752
rhand -9.18448 9.0209
rfingers 7.12502
rthumb 16.7688 -20.2749
lclavicle 4.8901e-014 -4.13472e-014
lhumerus -31.7324 13.3995 80.2532
lradius 14.336
lwrist -44.4234
lhand -13.3977 -5.52356
lfingers 7.12502
lthumb 12.7098 24.0697
rfemur 16.783 0.786997 15.8042
rtibia 28.0244
rfoot 1.03279 19.8204
rtoes 2.01086
lfemur -26.3156 5.75735 -16.3779
ltibia 32.6948
lfoot 3.74199 -6.24678
ltoes -2.09952
55
root -14.8649 18.7729 -0.726822 1546.59 -88.1023 -110.134
lowerback -5.44355 5.95932 1.34353
upperback 7.982 8.07787 -3.41854
thorax 12.411 4.10968 -3.14864
lowerneck -4.32091 -7.16671 1.49752
upperneck 2.34431 -9.7505 2.55886
head 1.50699 -4.80956 0.291439
rclavicle 5.32743e-014 -4.29375e-014
rhumerus 2.13337 7.37998 -86.4154
rradius 76.1755
rwrist -19.8234
rhand -9.59984 9.20492
rfingers 7.12502
rthumb 16.369 -20.1243
lclavicle 5.32743e-014 -4.29375e-014
lhumerus -31.2906 12.5143 80.5794
lradius 14.4988
lwrist -43.5482
lhand -13.3776 -5.45142
lfingers 7.12502
lthumb 12.7292 24.1406
rfemur 16.0786 0.951393 15.6136
rtibia 29.665
rfoot 2.46796 19.2611
rtoes 1.90694
lfemur -25.9726 5.7183 -16.6079
ltibia 33.0547
lfoot 3.26733 -6.40577
ltoes -2.44473
56
root -15.017 18.7917 -0.698285 1545.56 -88.2538 -109.1
lowerback -5.55553 6.00412 1.11296
upperback 7.93381 8.17632 -3.54784
thorax 12.4188 4.14175 -3.1368
lowerneck -4.17508 -7.27933 1.44883
upperneck 2.27882 -9.90028 2.73607
head 1.47418 -4.88437 0.356294
rclavicle 2.70347e-014 -2.8625e-014
rhumerus 2.88753 7.17693 -86.1007
rradius 76.8792
rwrist -19.9639
rhand -10.1016 9.45174
rfingers 7.12502
rthumb 15.8858 -19.9166
lclavicle 2.70347e-014 -2.8625e-014
lhumerus -30.8802 11.4657 80.9991
lradius 14.7636
lwrist -42.3985
lhand -13.43 -5.29265
lfingers 7.12502
lthumb 12.6787 24.3025
rfemur 15.3391 1.07282 15.4138
rtibia 31.2971
rfoot 3.892 18.6583
rtoes 1.27168
lfemur -25.6005 5.62825 -16.834
ltibia 33.33
lfoot 2.75589 -6.51558
ltoes -2.56465
57
root -15.1672 18.8097 -0.671057 1544.51 -88.3757 -108.05
lowerback -5.65957 6.06672 0.910616
upperback 7.88275 8.29519 -3.66736
thorax 12.4229 4.18571 -3.12682
lowerneck -4.05324 -7.41417 1.41669
upperneck 2.25415 -10.0806 2.87088
head 1.45599 -4.9742 0.403052
rclavicle 1.03368e-013 -5.40694e-014
rhumerus 3.64201 6.90509 -85.7599
rradius 77.5801
rwrist -19.9944
rhand -10.7177 9.78439
rfingers 7.12502
rthumb 15.2924 -19.6303
lclavicle 1.03368e-013 -5.40694e-014
lhumerus -30.4487 10.477 81.3839
lradius 14.9867
lwrist -41.3037
lhand -13.5461 -5.14127
lfingers 7.12502
lthumb 12.5668 24.4608
rfemur 14.6181 1.17651 15.244
rtibia 32.8908
rfoot 5.20875 18.0478
rtoes 0.0808361
lfemur -25.1977 5.614 -17.039
ltibia 33.5436
lfoot 2.25718 -6.66807
ltoes -2.46768
